<svg width="318" height="310" viewBox="0 0 318 310" fill="none" xmlns="http://www.w3.org/2000/svg">
<path d="M288.698 165.291C288.698 169.137 288.698 173.41 288.271 177.256C286.989 194.35 282.715 210.162 275.878 225.12C273.314 231.103 269.895 236.658 266.476 242.214C240.835 282.812 195.963 309.308 144.681 309.308C122.886 309.308 101.946 304.179 83.1427 295.632C34.4247 272.556 0.664062 222.556 0.664062 165.291C0.664062 108.453 33.1427 59.735 80.5786 36.2308C76.7324 40.9316 73.3136 46.4872 70.3222 51.6154C69.8948 52.0427 69.8948 52.4701 69.4675 52.8974C67.7581 54.6068 65.6213 55.8889 63.9119 57.5983L57.5017 64.0086L56.2196 65.2906C55.7923 65.718 55.3649 66.1453 54.9376 67C54.0829 67.8547 53.2282 68.7094 52.8008 69.5641C51.5188 71.2735 49.8094 72.9829 48.5273 75.1197C42.5444 82.812 37.4162 91.7863 33.57 100.761L32.288 103.325C31.8606 104.607 31.4333 105.462 31.0059 106.744C31.0059 107.171 30.5786 108.026 30.5786 108.453C30.1512 110.162 29.2965 111.872 28.8692 113.581C28.4418 114.863 28.0145 115.718 28.0145 117C28.0145 117.427 27.5871 118.282 27.5871 118.709C27.1598 119.991 27.1598 120.846 26.7324 122.128C25.8777 125.547 25.023 129.393 24.5957 133.239C24.5957 134.094 24.1683 134.949 24.1683 136.231C24.1683 137.085 24.1683 137.513 23.741 138.368C23.741 139.65 23.741 140.504 23.3136 141.786V151.188C23.3136 190.504 41.2624 225.547 69.4675 248.624C91.2624 266.573 119.04 277.256 148.955 277.256C176.305 277.256 201.946 268.282 222.459 253.325C237.416 242.214 250.237 228.111 259.211 211.872C260.493 209.735 261.348 207.598 262.63 205.462C269.895 190.504 274.168 173.41 274.596 155.889V151.615C274.596 147.342 274.596 143.496 274.168 139.65C274.596 139.65 274.596 140.077 274.596 140.077C276.732 141.786 278.442 143.496 280.151 145.205C281.861 142.214 283.57 139.222 285.707 136.658C286.989 142.214 287.844 147.769 288.271 153.325C288.698 156.744 288.698 161.017 288.698 165.291Z" fill="#EA2227"/>
<path d="M274.595 150.761V155.034C274.595 180.675 263.911 202.043 262.629 204.607C261.774 206.744 260.492 208.88 259.21 211.017C250.236 227.256 237.415 241.786 222.458 252.47C201.945 267.427 176.304 276.402 148.954 276.402C118.612 276.402 90.8339 265.718 69.4664 247.769C41.2612 224.692 23.3125 189.65 23.3125 150.333V140.932C23.3125 139.65 23.3125 138.795 23.7399 137.513C23.7399 136.658 23.7399 136.231 24.1672 135.376C24.1672 134.521 24.5946 133.667 24.5946 132.385C25.0219 128.538 25.8766 125.12 26.7313 121.273C27.1587 119.991 27.1587 119.137 27.586 117.855C27.586 117.427 28.0134 116.573 28.0134 116.145C28.4407 114.863 28.4407 114.009 28.8681 112.726C29.2954 111.017 30.1501 109.308 30.5775 107.598C30.5775 107.171 31.0048 106.316 31.0048 105.889C31.4322 104.607 31.8595 103.752 32.2869 102.47L33.5689 99.906C37.4151 90.9316 42.5433 81.9573 48.5262 74.2649C49.8082 72.5555 51.5176 70.8461 52.7997 68.7094C53.6544 67.8547 54.0817 67 54.9364 66.1453C55.3638 65.7179 55.7911 65.2906 56.2185 64.4359L57.5005 63.1538L63.9108 56.7436C65.6202 55.0342 67.7569 53.3248 69.4664 52.0427C69.039 52.4701 69.039 52.8974 68.6116 53.3248C68.1843 53.7521 68.1843 54.1795 67.757 55.0342C60.492 69.9914 55.7911 87.0855 54.0817 105.889C53.6544 111.017 53.227 116.145 53.227 121.273C53.227 187.085 91.6886 240.504 139.552 240.504H144.253C151.09 240.504 157.928 239.65 164.338 237.94C196.817 228.966 220.321 199.479 220.321 164.436V162.299C219.894 141.359 210.919 122.983 196.817 109.308C206.646 109.735 216.048 111.017 225.449 113.154C242.971 117.855 259.21 125.974 272.885 137.085C273.312 137.085 273.313 137.513 273.74 137.513C274.167 142.641 274.595 146.487 274.595 150.761Z" fill="#F69220"/>
<path d="M275.025 150.761V155.034C275.025 181.957 263.059 205.034 263.059 205.034C262.205 207.171 260.922 209.308 259.64 211.444C250.666 227.684 237.846 242.214 222.461 253.325C200.666 268.709 175.452 277.256 148.529 277.256C119.469 277.256 90.837 267 68.6148 248.624C39.1276 224.692 22.4609 188.795 22.4609 150.761C22.4609 112.726 39.555 76.829 69.0421 52.8974L70.3242 52.0427C69.8968 52.4701 69.8968 52.8974 69.4695 53.3248C69.0421 53.7521 69.0421 54.1795 68.6148 54.6068C39.9823 78.5385 23.3156 113.581 23.3156 150.761C23.3156 188.368 39.9823 223.838 69.0421 247.769C91.2644 266.145 119.469 275.974 148.529 275.974C175.025 275.974 200.239 267.855 221.606 252.47C236.563 241.786 249.384 227.256 258.358 211.017C259.64 208.88 260.495 206.744 261.777 204.607C261.777 204.179 273.743 181.53 273.743 155.034V150.761C273.743 146.915 273.743 142.641 273.316 138.795V138.368C273.743 138.368 273.743 138.795 274.17 138.795L274.598 139.222C275.025 143.068 275.025 146.915 275.025 150.761Z" fill="#F69220"/>
<path d="M240.831 72.5556C240.831 72.5556 138.267 53.3248 89.9766 142.641C89.9766 142.641 98.5236 80.6752 172.028 52.8974L157.498 25.547C157.498 25.547 186.985 -0.948716 238.694 5.88889L240.831 72.5556Z" fill="#EA2227"/>
<path d="M113.484 119.991C113.484 119.991 154.51 66.5727 248.1 80.2479L246.818 49.0513C246.818 49.0513 286.134 47.7692 317.758 75.1197L278.869 134.094C278.869 134.094 251.946 102.897 196.39 102.043C173.741 101.615 145.963 104.607 113.484 119.991Z" fill="#F69220"/>
<path d="M72.8887 168.709C72.8887 168.709 25.8802 66.5726 134.855 0.760681L160.923 48.6239C160.923 48.6239 143.402 54.6068 124.598 70.8461C104.085 88.3675 81.8631 118.282 72.8887 168.709Z" fill="#F69220"/>
<path d="M134.851 140.932C134.851 140.932 125.877 143.068 126.304 138.368C126.304 136.658 127.159 136.231 128.013 136.658C128.013 135.803 126.304 133.667 130.15 132.385C131.432 130.675 132.714 128.966 133.141 128.111C133.569 126.829 134.423 125.547 137.842 125.974C141.261 126.829 145.107 130.248 145.535 131.103C147.671 131.103 149.808 131.53 148.953 131.957C148.099 132.385 147.671 133.239 148.099 133.239C148.099 133.239 149.381 134.094 145.962 134.094C145.962 134.949 146.817 134.949 147.244 135.376C147.671 135.803 147.244 136.231 147.244 136.231C147.244 136.231 147.671 137.94 145.962 137.513C144.253 136.658 144.253 136.231 143.398 136.231C142.971 136.231 141.688 136.658 141.688 137.085C141.688 137.513 143.825 138.795 141.261 139.222C140.834 139.65 142.116 140.077 141.261 140.504C140.406 140.932 136.56 143.923 134.851 144.35C133.141 144.35 132.714 143.923 132.714 143.068C132.714 142.214 133.569 141.786 134.851 141.786C135.278 141.359 135.278 140.932 134.851 140.932Z" fill="#EC1C24"/>
<path d="M133.997 150.333C133.142 150.333 130.578 148.624 131.86 147.769C133.142 146.915 139.125 143.068 140.407 142.641C141.689 142.214 143.399 143.923 141.689 145.205C140.407 146.487 133.997 150.333 133.997 150.333Z" fill="#EC1C24"/>
<path d="M143.398 146.06C143.398 145.205 144.253 141.359 144.253 140.504C144.253 139.65 147.245 139.65 146.39 142.641C145.963 146.06 143.398 146.915 143.398 146.06Z" fill="#EC1C24"/>
<path d="M147.243 139.222C147.243 139.222 163.482 138.368 164.764 139.222C166.046 140.077 171.602 148.624 170.32 156.316C169.038 164.009 166.474 166.145 156.217 167C156.217 164.436 155.79 158.026 154.508 156.316C153.653 154.607 149.807 150.761 148.098 150.761C148.098 152.47 147.67 158.026 147.67 158.026C147.67 158.026 142.542 158.453 141.688 157.171V149.051C141.688 149.051 146.388 144.778 146.816 143.923C147.67 144.35 147.67 146.915 153.653 146.487C154.081 145.632 147.243 146.487 147.243 139.222Z" fill="#EC1C24"/>
<path d="M141.262 146.487C141.262 146.487 136.134 150.761 134.852 151.615C134.425 152.897 133.57 157.598 140.407 157.598C140.835 154.607 141.262 146.487 141.262 146.487Z" fill="#EC1C24"/>
<path d="M128.866 152.897C127.156 152.897 125.874 152.47 126.302 151.188C126.302 149.906 128.866 148.624 130.148 149.051C131.43 149.479 133.994 149.906 133.994 155.462C134.849 156.744 138.267 158.88 142.114 159.308C145.96 159.735 148.524 158.88 148.524 160.162V167.855C148.524 167.855 143.823 167.855 131.857 159.308C131.002 158.026 130.148 157.171 130.148 155.034C130.148 154.179 129.293 152.897 128.866 152.897Z" fill="#EC1C24"/>
<path d="M125.023 153.752C122.887 153.752 117.331 158.453 121.604 160.59C122.887 159.735 123.741 158.453 123.741 158.453C123.741 158.453 122.887 161.017 125.023 161.872C127.16 162.727 126.305 160.59 127.587 160.59C128.442 161.872 128.442 162.299 129.724 162.299C131.006 162.299 131.006 158.88 129.724 157.171C128.442 155.034 127.16 154.179 125.023 153.752Z" fill="#EC1C24"/>
<path d="M149.375 154.607V169.564C149.375 169.564 154.503 167.855 154.931 166.573C154.931 164.009 154.076 154.607 149.375 154.607Z" fill="#EC1C24"/>
<path d="M137.414 164.436C137.414 164.436 143.397 168.282 146.816 169.991C146.388 170.846 143.824 173.838 142.97 173.838C142.115 173.41 137.841 167.427 137.414 164.436Z" fill="#EC1C24"/>
<path d="M108.781 169.991H116.474V172.983H109.209L108.781 169.991Z" fill="#EC1C24"/>
<path d="M196.386 168.709H162.625L168.181 172.983H196.386V168.709Z" fill="#EC1C24"/>
<path d="M156.218 168.282C156.646 167.855 160.492 170.846 159.637 171.274C158.355 171.701 148.099 176.402 147.244 175.974C146.389 175.547 146.389 172.983 147.671 172.556C148.526 172.128 154.509 170.419 156.218 168.282Z" fill="#EC1C24"/>
<path d="M144.675 175.547C143.393 174.692 136.555 181.53 139.547 181.957C142.538 182.385 149.803 183.667 151.513 184.521C153.222 183.667 154.931 182.385 154.504 181.53C155.786 181.53 157.496 183.239 159.205 182.812C160.914 181.957 169.034 175.974 169.461 175.12C167.752 173.838 164.333 171.701 162.624 171.701C161.342 171.701 150.231 178.111 144.675 175.547Z" fill="#EC1C24"/>
<path d="M141.262 183.667C142.117 183.667 150.664 187.085 152.8 186.658C154.937 186.231 155.365 184.094 156.647 184.094C157.929 184.094 158.356 185.376 160.493 184.094C162.63 182.812 166.048 179.821 166.903 178.966C166.903 180.248 166.903 184.094 159.211 187.513C151.518 190.932 133.142 196.06 132.715 198.624C133.57 199.051 135.706 198.197 137.416 197.342C138.271 198.197 139.98 200.333 139.553 204.607C139.125 208.453 136.134 215.291 136.134 217V228.111C136.134 228.966 137.843 233.667 135.279 233.239C133.142 232.812 131.433 232.812 130.578 232.812C129.724 232.812 128.014 234.521 126.305 234.094C124.595 233.667 122.031 233.239 122.031 232.385C122.031 231.53 123.741 231.53 125.45 231.103C127.159 230.675 128.014 228.966 131.006 227.684C131.006 225.547 130.151 211.017 130.151 208.026C130.151 205.034 129.296 198.624 130.578 196.06C131.006 193.496 137.843 183.667 141.262 183.667Z" fill="#EC1C24"/>
<path d="M152.367 192.641C152.367 193.496 157.495 206.744 160.059 207.171C162.196 207.598 183.991 202.897 188.265 204.179C189.547 205.889 192.111 208.88 192.111 211.017C192.111 211.017 192.538 215.291 192.111 215.718C192.965 215.718 194.675 215.291 195.102 214.009C195.53 212.727 195.102 207.171 195.53 205.889C195.53 205.034 198.094 199.479 194.675 199.906C191.256 199.906 181 199.906 177.581 199.051C174.162 198.197 166.897 196.915 165.188 197.769C163.478 198.624 161.342 201.615 161.342 202.47C160.487 202.47 160.487 202.043 160.914 199.479C161.769 197.342 164.333 190.504 163.906 187.085C161.342 187.085 152.367 192.641 152.367 192.641Z" fill="#EC1C24"/>
<path d="M139.973 171.701C140.401 172.128 140.401 173.41 141.255 173.838L123.734 172.556C123.734 172.556 121.597 171.274 122.452 170.846L139.973 171.701Z" fill="#EC1C24"/>
<path d="M120.743 169.991H138.265C138.265 169.991 136.983 167.855 136.555 166.573C133.564 166.573 120.316 167 120.316 167C120.316 167 118.607 167 118.607 170.419C118.179 171.274 119.889 172.556 120.743 169.991Z" fill="#EC1C24"/>
<path d="M104.079 172.983H107.498C107.498 172.983 108.78 172.556 107.498 171.274C106.216 169.991 104.079 169.137 105.789 166.573C104.079 166.145 101.515 165.718 101.943 171.274H100.233C100.233 171.274 99.8058 168.282 95.5323 168.282C91.6861 168.282 81.4297 172.556 81.4297 172.556C81.4297 172.556 92.5408 175.547 95.5323 175.547C98.5237 175.547 100.233 172.983 100.233 172.983H101.515C101.515 172.983 101.943 175.12 102.797 175.974V179.393C102.797 179.393 101.088 179.821 101.515 181.957C101.943 183.667 103.225 183.667 103.225 183.667C103.652 183.667 104.079 183.239 105.361 183.239C106.216 182.385 105.789 180.248 104.079 179.393V176.829C104.079 176.829 105.361 175.974 105.361 175.12C105.361 174.265 104.079 174.265 104.079 172.983Z" fill="#EC1C24"/>
<path d="M125.017 190.077C126.299 189.222 126.727 187.513 126.727 187.513V177.256C126.727 174.692 122.453 172.983 122.026 172.983H121.598C121.171 173.41 119.889 174.265 119.034 174.265C117.752 174.265 117.325 174.265 116.043 172.983C112.624 172.983 110.915 177.256 110.487 177.256C110.487 178.111 110.06 185.376 110.487 186.658C110.915 187.94 111.769 188.795 112.197 189.222C111.342 191.786 107.923 205.462 112.624 207.171V209.308H124.59V206.744C128.863 205.034 125.872 193.496 125.017 190.077ZM111.769 177.256C112.197 176.829 113.479 173.41 116.043 173.41C117.325 174.692 118.18 174.692 119.462 174.692C120.744 174.692 121.598 173.838 122.453 173.41C123.735 173.838 126.299 175.12 126.299 176.829V187.085C126.299 187.513 125.872 188.368 125.017 188.795H122.88V184.521H114.761V188.795H113.051C112.624 188.368 111.769 187.513 111.769 186.658C111.342 185.803 111.342 180.675 111.769 177.256ZM119.889 205.462H117.752C117.325 205.462 116.898 205.034 116.898 204.607C116.898 204.179 117.325 203.752 117.752 203.752H119.889C120.316 203.752 120.744 204.179 120.744 204.607C120.744 205.034 120.316 205.462 119.889 205.462ZM124.163 206.316L118.607 199.906L113.479 206.316C110.06 205.034 112.197 194.35 113.479 189.65H124.59C125.445 194.35 127.581 204.607 124.163 206.316Z" fill="#EC1C24"/>
<path d="M122.458 194.35C123.74 192.641 122.031 191.359 122.031 191.359H115.193C113.056 191.359 113.911 194.35 113.911 194.35L118.185 198.197C118.185 198.197 121.176 196.487 122.458 194.35Z" fill="#EC1C24"/>
<path d="M119.891 198.624L124.164 203.752C124.164 203.752 123.737 197.769 123.737 196.06C122.455 196.06 119.891 198.624 119.891 198.624Z" fill="#EC1C24"/>
<path d="M113.482 196.06C113.482 198.197 113.055 203.752 113.055 203.752L117.328 198.624C117.328 198.624 114.764 196.06 113.482 196.06Z" fill="#EC1C24"/>
<path d="M121.601 183.239H122.456V182.385C122.456 181.957 122.028 181.53 121.601 181.53H115.191C114.763 181.53 114.336 181.957 114.336 182.385V183.239H115.191H121.601Z" fill="#EC1C24"/>
<path d="M112.198 210.162H111.344V211.017C111.344 211.444 111.771 211.872 112.198 211.872H124.592C125.019 211.872 125.446 211.444 125.446 211.017V210.162H124.592H112.198Z" fill="#EC1C24"/>
</svg>
